HIERARCHY
ROOT Hips
{
	OFFSET 0.000000 0.000000 0.000000 
	CHANNELS 6 Xposition Yposition Zposition Zrotation Yrotation Xrotation
	JOINT LeftUpLeg
	{
		OFFSET 1.363060 -1.794630 0.839290 
		CHANNELS 3 Zrotation Yrotation Xrotation
		JOINT LeftLeg
		{
			OFFSET 2.448110 -6.726130 0.000000 
			CHANNELS 3 Zrotation Yrotation Xrotation
			JOINT LeftFoot
			{
				OFFSET 2.562200 -7.039590 0.000000 
				CHANNELS 3 Zrotation Yrotation Xrotation
				JOINT LeftToeBase
				{
					OFFSET 0.157640 -0.433110 2.322550 
					CHANNELS 3 Zrotation Yrotation Xrotation
					End Site
					{
						OFFSET 0.000000 0.000000 0.000000 
					}
				}
			}
		}
	}
	JOINT RightUpLeg
	{
		OFFSET -1.305520 -1.794630 0.839290 
		CHANNELS 3 Zrotation Yrotation Xrotation
		JOINT RightLeg
		{
			OFFSET -2.542530 -6.985550 0.000000 
			CHANNELS 3 Zrotation Yrotation Xrotation
			JOINT RightFoot
			{
				OFFSET -2.568260 -7.056230 0.000000 
				CHANNELS 3 Zrotation Yrotation Xrotation
				JOINT RightToeBase
				{
					OFFSET -0.164730 -0.452590 2.363150 
					CHANNELS 3 Zrotation Yrotation Xrotation
					End Site
					{
						OFFSET 0.000000 0.000000 0.000000 
					}
				}
			}
		}
	}
	JOINT Spine
	{
		OFFSET 0.028270 2.035590 -0.193380 
		CHANNELS 3 Zrotation Yrotation Xrotation
		JOINT Spine1
		{
			OFFSET 0.056720 2.048850 -0.042750 
			CHANNELS 3 Zrotation Yrotation Xrotation
			JOINT Neck1
			{
				OFFSET -0.054170 1.746240 0.172020 
				CHANNELS 3 Zrotation Yrotation Xrotation
				JOINT Head
				{
					OFFSET 0.104070 1.761360 -0.123970 
					CHANNELS 3 Zrotation Yrotation Xrotation
					End Site
					{
						OFFSET 0.000000 0.000000 0.000000 
					}
				}
			}
			JOINT LeftArm
			{
				OFFSET 3.362410 1.200890 -0.311210 
				CHANNELS 3 Zrotation Yrotation Xrotation
				JOINT LeftForeArm
				{
					OFFSET 4.983000 -0.000000 -0.000000 
					CHANNELS 3 Zrotation Yrotation Xrotation
					JOINT LeftHand
					{
						OFFSET 3.483560 -0.000000 -0.000000 
						CHANNELS 3 Zrotation Yrotation Xrotation
						JOINT LeftHandIndex1
						{
							OFFSET 0.715260 -0.000000 -0.000000 
							CHANNELS 3 Zrotation Yrotation Xrotation
							End Site
							{
								OFFSET 0.000000 0.000000 0.000000 
							}
						}
					}
				}
			}
			JOINT RightArm
			{
				OFFSET -3.136600 1.374050 -0.404650 
				CHANNELS 3 Zrotation Yrotation Xrotation
				JOINT RightForeArm
				{
					OFFSET -5.241900 -0.000000 -0.000000 
					CHANNELS 3 Zrotation Yrotation Xrotation
					JOINT RightHand
					{
						OFFSET -3.444170 -0.000000 -0.000000 
						CHANNELS 3 Zrotation Yrotation Xrotation
						JOINT RightHandIndex1
						{
							OFFSET -0.622530 -0.000000 -0.000000 
							CHANNELS 3 Zrotation Yrotation Xrotation
							End Site
							{
								OFFSET 0.000000 0.000000 0.000000 
							}
						}
					}
				}
			}
		}
	}
}
MOTION
Frames: 12
Frame Time: 0.041667
7.090685 17.310710 -18.649756 6.238005 13.289578 6.499676 -1.431919 5.980759 -31.273527 7.260030 16.205696 50.703438 2.991493 -5.030952 16.339523 0.701900 -5.355200 -14.924400 -0.419131 -8.549998 -38.326989 -7.444398 -14.917535 46.414907 2.532059 -10.354055 11.101511 -0.935500 6.160800 -17.251700 1.255537 -0.380540 -1.948763 4.768823 -1.087109 0.538685 3.467325 -1.088017 7.842850 2.514100 -1.279200 10.476200 -86.231909 -23.191445 32.498606 38.043933 -44.276111 -21.674426 0.738912 -4.172903 3.405476 -7.125000 0.000000 0.000000 75.106372 10.602297 2.898205 -53.890930 52.602366 -36.186017 1.344646 0.890513 -19.297815 7.125000 0.000000 0.000000 
7.144349 17.302085 -18.537956 6.401469 13.201300 6.826590 -1.166691 5.578291 -31.426498 6.532820 15.696021 48.325848 2.898582 -4.247124 16.494208 0.795700 -5.693800 -15.898500 -0.718113 -8.477814 -38.413236 -7.567564 -14.990812 46.877689 2.339671 -9.870934 10.700468 -0.900800 6.048800 -16.926000 1.221860 -0.199093 -1.956611 4.672249 -0.976037 0.431056 3.470307 -1.349241 7.728838 2.429800 -1.376200 10.407200 -86.471273 -24.206425 33.590327 37.754756 -44.044158 -21.360565 0.698067 -4.219476 4.013018 -7.125000 0.000000 0.000000 74.675463 11.573646 2.352055 -54.250179 52.650783 -36.525282 1.345125 0.931065 -19.629942 7.125000 0.000000 0.000000 
7.196203 17.284943 -18.428179 6.421124 13.092923 7.108021 -0.730300 5.184307 -31.506417 5.812710 15.133364 45.883202 2.817970 -3.497201 16.581755 0.896600 -6.034900 -16.885600 -0.902248 -8.320939 -38.462262 -7.659272 -15.057231 47.253538 2.214125 -9.523975 10.213922 -0.814900 5.760400 -16.090700 1.114509 0.357973 -1.970741 4.034596 -0.628414 0.108798 3.512245 -2.166145 7.485510 2.190000 -1.666900 10.111600 -86.562890 -25.122417 35.668464 37.351267 -43.761940 -20.961185 0.636750 -4.229314 4.471247 -7.125000 0.000000 0.000000 74.657644 11.826650 0.942347 -55.138894 52.898962 -37.462703 1.314750 1.017513 -20.098397 7.125000 0.000000 0.000000 
7.249441 17.272378 -18.319786 6.254721 12.982571 7.302392 -0.035542 4.687459 -31.440029 5.092765 14.528641 43.338793 2.715176 -2.652696 16.945261 0.817000 -5.767600 -16.111700 -0.880330 -8.176286 -38.478772 -7.756031 -15.121235 47.635618 2.235039 -9.458484 9.486978 -0.752300 5.540000 -15.455300 1.180112 0.047287 -1.950497 4.375610 -0.825086 0.321803 3.569076 -1.799019 7.516009 2.425800 -1.552900 10.354000 -86.836164 -26.227652 35.425270 37.142552 -43.570452 -20.766804 0.571571 -4.195963 4.884612 -7.125000 0.000000 0.000000 73.754384 13.524536 1.510103 -55.654041 52.987726 -37.947862 1.288051 1.066914 -20.575756 7.125000 0.000000 0.000000 
7.309813 17.257472 -18.214375 6.103290 12.866216 7.478024 0.674993 4.114241 -31.251764 4.347977 13.856833 40.692091 2.669327 -1.944600 17.719425 0.640900 -5.121800 -14.256200 -0.906469 -8.105450 -38.496050 -7.850554 -15.183432 47.995984 2.216323 -9.338583 8.911421 -0.719900 5.421800 -15.115500 1.195939 -0.040836 -1.937908 4.385227 -0.878696 0.405056 3.558764 -1.735204 7.515598 2.498700 -1.552300 10.539000 -86.955062 -27.452669 36.021878 36.854301 -43.328936 -20.492859 0.511395 -4.173831 5.110310 -7.125000 0.000000 0.000000 73.041655 14.924277 1.592145 -56.158246 53.072716 -38.406113 1.291246 1.077002 -21.061244 7.125000 0.000000 0.000000 
7.371037 17.238838 -18.111518 5.952903 12.698430 7.642189 1.418438 3.576375 -31.003102 3.595859 13.112512 37.929570 2.659549 -1.285618 18.674992 0.528500 -4.658700 -12.937700 -0.927956 -8.004805 -38.515796 -7.947934 -15.249099 48.365669 2.200253 -9.231563 8.359266 -0.803600 5.721400 -15.978300 1.187521 0.095279 -1.934568 4.290784 -0.810212 0.335640 3.630370 -1.857376 7.441585 2.542400 -1.602900 10.610100 -87.112832 -28.803009 37.238310 36.363634 -42.946088 -20.017347 0.385679 -4.189535 5.335683 -7.125000 0.000000 0.000000 72.349596 15.779681 1.416094 -57.316336 53.388995 -39.526271 1.292414 1.113537 -21.662474 7.125000 0.000000 0.000000 
7.430664 17.233515 -18.010579 5.891044 12.445053 7.802190 2.130159 2.944609 -30.639970 2.860804 12.310916 35.090050 2.593532 -0.446598 19.678759 0.521800 -4.629600 -12.855100 -1.052176 -7.798258 -38.471099 -8.047757 -15.315712 48.711738 2.252234 -9.264387 7.709749 -0.963900 6.251200 -17.515000 1.138801 0.480247 -1.964443 4.105346 -0.586131 -0.084481 3.766793 -2.293161 7.240266 2.500300 -1.751900 10.372300 -87.347321 -29.651409 39.036218 36.103135 -42.728689 -19.744597 0.273761 -4.182823 5.499102 -7.125000 0.000000 0.000000 71.995131 16.113803 0.834699 -58.681293 53.772792 -40.854061 1.301989 1.162056 -22.211822 7.125000 0.000000 0.000000 
7.495508 17.227871 -17.908362 5.948642 12.239959 7.978396 2.768921 2.196950 -30.210013 2.152326 11.479234 32.271469 2.555724 0.334949 20.882614 0.684100 -5.288200 -14.732300 -1.309267 -7.654780 -38.389015 -8.149557 -15.375025 49.019922 2.306601 -9.321491 7.143996 -1.020500 6.426500 -18.027100 1.113325 0.434590 -1.969754 4.100869 -0.590834 -0.237568 3.884317 -2.308273 7.033786 2.594600 -1.741800 10.223800 -87.387976 -30.470918 39.710232 36.122675 -42.696063 -19.746686 0.261770 -4.123200 5.877234 -7.125000 0.000000 0.000000 71.614678 17.682380 0.718752 -58.528940 53.620073 -40.624677 1.332137 1.132740 -22.246916 7.125000 0.000000 0.000000 
7.562588 17.210729 -17.803376 5.633243 12.227690 8.103070 3.802515 1.339550 -29.731814 1.501802 10.607056 29.453832 2.667321 0.889168 22.795204 0.905900 -6.065300 -16.973900 -1.181574 -7.636415 -38.363722 -8.209010 -15.421517 49.293018 2.250886 -9.168814 6.814456 -0.963500 6.249900 -17.511400 1.115502 0.464730 -1.972477 3.934906 -0.553234 -0.357652 3.867974 -2.458409 6.824950 2.538200 -1.793000 10.053300 -87.476393 -31.396450 40.793964 36.040396 -42.600166 -19.648042 0.229653 -4.098146 6.287869 -7.125000 0.000000 0.000000 71.068928 19.302503 0.314583 -57.939886 53.316062 -40.004155 1.347618 1.108976 -22.012791 7.125000 0.000000 0.000000 
7.629455 17.198271 -17.697964 5.273869 12.111258 8.253923 4.990434 0.264508 -29.154068 0.922907 9.747829 26.764328 2.878163 1.283350 24.958109 1.027300 -6.447300 -18.087800 -0.998179 -7.548000 -38.322555 -8.248185 -15.456714 49.525333 2.191169 -9.002266 6.411589 -0.986900 6.323200 -17.725200 1.153088 0.532033 -1.943781 4.052855 -0.540182 -0.265886 3.904433 -2.515499 6.597838 2.562200 -1.812000 9.944800 -87.734438 -32.746714 41.867424 35.689209 -42.312594 -19.299072 0.087794 -4.100434 6.761440 -7.125000 0.000000 0.000000 70.235718 20.919574 0.070672 -58.017476 53.244172 -40.053752 1.350996 1.118078 -22.118653 7.125000 0.000000 0.000000 
7.700369 17.194331 -17.595853 5.169588 11.872800 8.372781 6.027057 -1.051368 -28.450884 0.429598 8.949710 24.303687 3.022567 1.835555 26.992073 1.172500 -6.873200 -19.340300 -1.103073 -7.454709 -38.156224 -8.300532 -15.491110 49.719252 2.177418 -8.944848 6.034897 -0.983800 6.313500 -17.696800 1.151911 0.589521 -1.905115 4.187710 -0.534651 -0.139482 4.170032 -2.575312 6.495637 2.777700 -1.820600 9.988600 -88.034894 -34.180782 42.842988 35.301209 -41.984810 -18.919852 -0.049780 -4.077158 7.638414 -7.125000 0.000000 0.000000 69.563870 22.538187 -0.167745 -58.474633 53.301534 -40.474744 1.353531 1.113705 -22.362335 7.125000 0.000000 0.000000 
7.777883 17.178253 -17.500025 5.041518 11.712982 8.528616 7.001157 -2.307571 -27.915738 0.034176 8.204106 22.039396 3.124041 2.493269 28.918369 1.536600 -7.825500 -22.185300 -1.188402 -7.520372 -38.158648 -8.363108 -15.524604 49.980282 1.952728 -8.470095 5.917809 -0.848700 5.875600 -16.424000 1.125030 0.689763 -1.895800 4.126054 -0.482721 -0.147419 4.520703 -2.791695 6.523257 3.034100 -1.892500 10.156200 -88.295309 -35.454076 44.145307 35.124880 -41.792966 -18.721914 -0.055737 -4.094692 8.511398 -7.125000 0.000000 0.000000 68.969662 24.034092 -0.574349 -58.947881 53.347610 -40.942493 1.337950 1.124176 -22.544944 7.125000 0.000000 0.000000 
